<?xml version="1.0" encoding="utf-8"?>
<svg viewBox="0 0 500 500"
  xmlns="http://www.w3.org/2000/svg"
  xmlns:xlink="http://www.w3.org/1999/xlink">
  <style>:root>svg{display:none}:root>svg:target{display:block}</style>
  <symbol viewBox="0 0 24 24" id="close"
    xmlns="http://www.w3.org/2000/svg">
    <path d="M3.302 4.717l1.415-1.414 15.98 15.98-1.414 1.414z"/>
    <path d="M3.303 19.283l15.98-15.98 1.414 1.414-15.98 15.98z"/>
  </symbol>
  <symbol viewBox="0 0 24 24" id="facebook"
    xmlns="http://www.w3.org/2000/svg">
    <path d="M17 3H7a4 4 0 00-4 4v10a4 4 0 004 4h5.621v-6.961h-2.343v-2.725h2.343V9.309c0-2.324 1.421-3.591 3.495-3.591.699-.002 1.397.034 2.092.105v2.43H16.78c-1.13 0-1.35.534-1.35 1.322v1.735h2.7l-.351 2.725h-2.365V21H17a4 4 0 004-4V7a4 4 0 00-4-4z"/>
  </symbol>
  <symbol viewBox="0 0 61.139 61.377" id="instagram"
    xmlns="http://www.w3.org/2000/svg">
    <path d="M30.62 14.786c-8.799 0-15.959 7.083-15.959 15.79 0 8.706 7.159 15.789 15.959 15.789 8.799 0 15.959-7.083 15.959-15.789 0-8.707-7.16-15.79-15.959-15.79zm0 25.766c-5.595 0-10.146-4.476-10.146-9.976 0-5.501 4.551-9.976 10.146-9.976 5.594 0 10.146 4.475 10.146 9.976s-4.551 9.976-10.146 9.976z"/>
    <path d="M43.541 0H17.598C7.895 0 0 7.894 0 17.598v26.181c0 9.703 7.894 17.598 17.598 17.598h25.943c9.704 0 17.598-7.895 17.598-17.598V17.598C61.139 7.895 53.245 0 43.541 0zm11.774 43.779c0 6.492-5.282 11.774-11.774 11.774H17.598c-6.492 0-11.774-5.282-11.774-11.774V17.598c0-6.492 5.282-11.774 11.774-11.774h25.943c6.492 0 11.774 5.282 11.774 11.774v26.181z"/>
    <circle cx="46.863" cy="14.141" r="3.755"/>
  </symbol>
  <symbol viewBox="0 0 62.2 41.376" id="mail"
    xmlns="http://www.w3.org/2000/svg">
    <path d="M43.412 20.732L62.2 39.52V1.945zM32.905 27.53L60.422.013C60.4.012 60.381 0 60.359 0H1.92l27.528 27.528c.917.92 2.54.919 3.457.002z"/>
    <path d="M34.761 29.383a5.037 5.037 0 01-3.583 1.48 5.03 5.03 0 01-3.585-1.48L20.57 22.36 1.603 41.327c.082.011.155.048.24.048h58.504L41.559 22.587l-6.798 6.796zM.008 1.8c0 .015-.008.027-.008.041v37.377l18.713-18.713L.008 1.8z"/>
  </symbol>
  <symbol viewBox="0 0 98.624 98.624" id="telegram"
    xmlns="http://www.w3.org/2000/svg">
    <path d="M49.312 0C22.078 0 0 22.078 0 49.312s22.078 49.312 49.312 49.312 49.312-22.078 49.312-49.312S76.546 0 49.312 0zm27.739 22.919L66.01 74.771a1.488 1.488 0 01-2.248.965L46.783 64.475l-8.931 8.311a1.488 1.488 0 01-2.372-.639l-5.815-18.34-15.615-6.404c-1.198-.546-1.181-2.454.047-2.931l60.956-23.237a1.489 1.489 0 011.998 1.684z"/>
    <path d="M37.356 66.708l.992-9.428 27.538-26.918-33.244 21.832z"/>
  </symbol>
  <symbol viewBox="0 0 24 24" id="twitter"
    xmlns="http://www.w3.org/2000/svg">
    <path d="M17 3H7a4 4 0 00-4 4v10a4 4 0 004 4h10a4 4 0 004-4V7a4 4 0 00-4-4zm.05 6.514v.343c0 3.257-2.486 7.029-7.029 7.029-1.371 0-2.657-.429-3.771-1.114h.6c1.114 0 2.229-.429 3.086-1.029-1.114 0-1.971-.771-2.314-1.714.171 0 .343.086.429.086.257 0 .429 0 .686-.086-1.114-.257-1.971-1.2-1.971-2.4.343.171.686.257 1.114.343-.686-.6-1.114-1.286-1.114-2.143 0-.429.086-.857.343-1.2 1.2 1.457 3 2.486 5.057 2.571 0-.171-.086-.343-.086-.6a2.488 2.488 0 012.486-2.486c.686 0 1.371.257 1.8.771.6-.086 1.114-.343 1.543-.6-.171.6-.6 1.029-1.114 1.371.514-.086.943-.171 1.457-.429a5.789 5.789 0 01-1.202 1.287z"/>
  </symbol>
  <symbol viewBox="0 0 48 48" id="vk"
    xmlns="http://www.w3.org/2000/svg">
    <path d="M45.763 35.202c-1.797-3.234-6.426-7.12-8.337-8.811a1.242 1.242 0 01-.103-1.776c3.647-3.919 6.564-8.422 7.568-11.143.443-1.202-.474-2.472-1.766-2.472h-3.753c-1.237 0-1.961.444-2.306 1.151-3.031 6.211-5.631 8.899-7.451 10.47-1.019.88-2.608.151-2.608-1.188v-8.28a2.084 2.084 0 00-2.095-2.075L18.056 11c-.863 0-1.356.977-.838 1.662l1.132 1.625c.426.563.656 1.248.656 1.951L19 23.556c0 1.273-1.543 1.895-2.459 1.003-3.099-3.018-5.788-9.181-6.756-12.128A2.087 2.087 0 007.8 11l-3.697-.009c-1.387 0-2.401 1.315-2.024 2.639C5.457 25.487 12.388 36.767 24.74 37.99c1.217.12 2.267-.86 2.267-2.073v-3.846c0-1.103.865-2.051 1.977-2.079l.117-.001c3.267 0 6.926 4.755 8.206 6.979a2.07 2.07 0 001.8 1.03h4.973c1.451 0 2.382-1.539 1.683-2.798z"/>
  </symbol>
  <symbol viewBox="0 0 50 50" id="youtube"
    xmlns="http://www.w3.org/2000/svg">
    <path d="M44.898 14.5c-.398-2.2-2.296-3.8-4.5-4.3C37.102 9.5 31 9 24.398 9c-6.597 0-12.796.5-16.097 1.2-2.2.5-4.102 2-4.5 4.3C3.398 17 3 20.5 3 25s.398 8 .898 10.5c.403 2.2 2.301 3.8 4.5 4.3 3.5.7 9.5 1.2 16.102 1.2s12.602-.5 16.102-1.2c2.199-.5 4.097-2 4.5-4.3.398-2.5.898-6.102 1-10.5-.204-4.5-.704-8-1.204-10.5zM19 32V18l12.2 7z"/>
  </symbol>
</svg>
